# xmcd
# Track frame offsets:
# 150
# 15714
# 34191
# 45354
# 59989
# 80299
# 95428
#
# Disc length: 1487 seconds
# Revision: 1
# Processed by: cddbd v1.5.2PL0 Copyright (c) Steve Scherf et al.
# Submitted via: VisiTrax 2.11.3.279 - For more info visit www.synapsa.com
#
DISCID=5205cd07
DTITLE=Slim Dusty - Columbia Lane - The Last Sessions
DYEAR=2004
DGENRE=Australian Country
TTITLE0=Blue Hills (In The Distance)
TTITLE1=Rolling Down The Road
TTITLE2=Nature's Gentleman
TTITLE3=Answer To Billy
TTITLE4=Long Distance Driving
TTITLE5=Gonna Take My Dog For A Run
TTITLE6=Get Along
EXTD=EMI Music Australia Slim Dusty Enterprises
EXTT0=
EXTT1=
EXTT2=
EXTT3=
EXTT4=
EXTT5=
EXTT6=
PLAYORDER=
